#!OML:ASF E:/inclinewalkrobotboard/Project1/Captureday1/Session1/subject1.ASF
:FULLY-SPECIFIED
:DEGREES
113
root 0 0 0 -1.1684517840208328 -2.848653372854524 -0.8810550772880628
lowerback 10.947508414358643 0.5626212411150433 0.4775173917951697
upperback -1.1104495158866352 0.8812521814109731 0.9152017937321851
thorax -7.28627126161662 0.4051062658419425 0.44850696379678784
lowerneck -13.416910600351336 -1.414112210587986 0.2100589662120474
upperneck 19.050407121157605 -1.411188600856276 -2.3383455118735688
head 8.214529257440326 -0.8131030256286318 -1.0004736259831466
rclavicle -4.62636111366287E-16 -2.6042378306937886E-16
rhumerus -11.251388086844912 -6.4164215765211745 -66.95649627121927
rradius 43.442950442748874
rwrist 12.261330039256082
rhand -23.777547073276782 -6.382950044266826
rfingers 7.125020000000132
rthumb 2.9269198284524975 -36.51828931759513
lclavicle -9.771553840810878E-16 -8.093113228086589E-16
lhumerus -11.91632144654533 -4.220661471525288 68.35898108324527
lradius 44.05999452371543
lwrist -5.34883863134236
lhand -33.47875221768433 -11.626977146992907
lfingers 7.125020000000128
lthumb -6.765931827013253 17.427630733355237
rfemur 12.313536731344083 8.93377075008555 37.473265826189206
rtibia 28.471870659596224
rfoot -15.599885549338058 -2.2039018753270785
rtoes 6.4863738030770675
lfemur -21.861483815518064 1.2699797580689114 -11.507085335036543
ltibia 59.01709468214818
lfoot 7.4753306429496345 -10.045048172754846
ltoes -4.522660035218845
114
root 0 0 0 -1.1536706577963767 -2.853901639526354 -0.8639396076688555
lowerback 10.953894418798637 0.5650368373508631 0.47388258939405414
upperback -1.1317278146076104 0.8828319021390654 0.9058839922783812
thorax -7.313222067361605 0.40606128565697364 0.4403125866246338
lowerneck -13.372722649640409 -1.3946611355981067 0.23657565205706071
upperneck 19.050287882214405 -1.3803613396604537 -2.3747696395403604
head 8.20658739782576 -0.8003557243508819 -1.0143904718772743
rclavicle -4.666836690022046E-16 -2.816206387182864E-16
rhumerus -10.854411739483396 -6.15091094493027 -66.71288024294466
rradius 43.81703130823293
rwrist 12.446727729427343
rhand -23.910327728625127 -7.028772805475786
rfingers 7.12502000000013
rthumb 2.7932551146015774 -37.15051829130686
lclavicle -9.775748876572146E-16 -8.057846620893922E-16
lhumerus -11.757842688702672 -4.257527015341527 68.24236321729569
lradius 44.189471568214735
lwrist -5.440780258556977
lhand -33.53518898968581 -11.933317042777425
lfingers 7.125020000000127
lthumb -6.81929455976939 17.125709202014527
rfemur 13.47694462389694 8.644163040854467 37.75196557173134
rtibia 31.14536288878145
rfoot -14.980088001799425 -1.6824134770783976
rtoes 7.126042935228418
lfemur -28.83210578218688 0.8202700946534393 -9.447394586306123
ltibia 54.95268291709273
lfoot 5.78536713838473 -6.4479081698688
ltoes -2.775717085708469
115
root 0 0 0 -1.1416669913618553 -2.858081276185108 -0.8501778481575495
lowerback 10.959033497236705 0.5669898766426782 0.4710187369509029
upperback -1.1487292560314115 0.8841269936457669 0.8982523167079193
thorax -7.334671982542582 0.4068203235404308 0.4337880843344323
lowerneck -13.337150132520255 -1.3790193750615267 0.2579362800326748
upperneck 19.04990538906257 -1.355700424952718 -2.4038795572849048
head 8.200080163935215 -0.7900856563291334 -1.0255133212294707
rclavicle -4.692286802816857E-16 -2.958377087531941E-16
rhumerus -10.581620392479063 -5.967898045004324 -66.546162130735
rradius 44.07249461438218
rwrist 12.573622270429325
rhand -24.001282146418625 -7.469152288598764
rfingers 7.125020000000129
rthumb 2.70188545544947 -37.584105874293215
lclavicle -9.808856488534365E-16 -8.011686758334451E-16
lhumerus -11.697766317626076 -4.270737780090492 68.19775269130457
lradius 44.23843321450273
lwrist -5.477263511265413
lhand -33.55726159062507 -12.055563637432375
lfingers 7.125020000000127
lthumb -6.839640007519079 17.008453199705514
rfemur 14.036746679390514 8.37800563851122 37.82310825091704
rtibia 33.28044983000948
rfoot -14.404231346892491 -1.3384034140688357
rtoes 7.58034402164068
lfemur -33.448959573880614 -0.061924684849216094 -8.453222061609477
ltibia 48.059669782155225
lfoot 3.198487007051824 -2.587037081467557
ltoes -0.950500706576662
116
root 0 0 0 -1.1340994917795675 -2.860799916368528 -0.8416976533697011
lowerback 10.962227917460005 0.5682856355470484 0.46925100923348745
upperback -1.1592823651643531 0.8847766130039986 0.8932933954366878
thorax -7.347579042483753 0.40732744924482955 0.42966353674791735
lowerneck -13.315120649848057 -1.3693510136504332 0.271154373839851
upperneck 19.04936318364437 -1.3403425660043022 -2.4216725725325956
head 8.195895306680244 -0.7836411014108735 -1.0323413113333415
rclavicle -4.679402066951841E-16 -3.0060073819472594E-16
rhumerus -10.476884384298344 -5.89544631147136 -66.48328765504657
rradius 44.16886355162785
rwrist 12.621641979203496
rhand -24.036077713556523 -7.6335306975718265
rfingers 7.125020000000128
rthumb 2.66705403341939 -37.74753065899712
lclavicle -9.878406048850856E-16 -7.958786305129862E-16
lhumerus -11.805102622015665 -4.243378147524856 68.27385347618741
lradius 44.151071362237325
lwrist -5.420366052349009
lhand -33.520614654809656 -11.86262425614108
lfingers 7.125020000000127
lthumb -6.804231210464298 17.2022520634763
rfemur 14.195188951005683 7.995235751608519 37.69345273345099
rtibia 35.96198511312703
rfoot -13.542110631337366 -1.0068884464458527
rtoes 8.089098900846516
lfemur -34.67420111932076 -1.7866667841864787 -9.096035761113267
ltibia 35.27819798444602
lfoot -1.6025971900869198 2.3588927779338222
ltoes 0.8645623123218868
